# File created by Blade
# Date/Time:  Mon Sep 29 17:58:21 2014
# Frame Rate: 120.000 fps
#------------------------------------------------------
:FULLY-SPECIFIED
:DEGREES
2539
root 0.005056 3.420978 -8.188620 -27.173552 1.992927 3.926411
Spine 39.078245 -45.014572 -11.416789
Head -92.405158 -62.304725 68.702116
LeftShoulder 19.736743 -8.054836 19.872431
LeftArm 32.596199 32.564822 -41.974577
LeftForeArm -1.591511 0.000000 16.683003
LeftHand -30.702031 0.000000 -29.169464
LeftHandThumb1 -26.253704 0.000000 33.147579
RightShoulder -20.663054 15.432454 -35.610461
RightArm -15.349993 -33.450070 98.873134
RightForeArm 9.636460 -0.000000 21.903089
RightHand -16.821867 0.000000 -63.039023
RightHandThumb1 -24.326973 -0.000000 -32.862282
LeftUpLeg -63.841277 15.660085 -29.320269
LeftLeg 2.862751 -0.000000 -0.000000
LeftFoot 36.402773 -11.030611 -11.984375
LeftToeBase 14.688779 -0.000000 -0.000000
RightUpLeg -96.439495 34.938963 31.223797
RightLeg 120.980166 -0.000000 -0.000000
RightFoot 5.486254 -22.733650 2.798260
RightToeBase 5.153512 -0.000000 -0.000000
2540
root 0.007430 3.422570 -8.189182 -27.091936 1.935994 3.915985
Spine 39.053923 -45.014454 -11.499242
Head -92.832683 -62.263895 69.166752
LeftShoulder 19.720481 -8.073790 19.884032
LeftArm 32.609438 32.367931 -42.090131
LeftForeArm -1.630510 -0.000000 16.693968
LeftHand -30.690510 -0.000000 -28.901462
LeftHandThumb1 -26.253704 0.000000 33.147579
RightShoulder -20.560217 15.545185 -35.490477
RightArm -15.194385 -33.449224 98.814589
RightForeArm 9.668221 -0.000000 21.475192
RightHand -16.850195 -0.000000 -62.870595
RightHandThumb1 -24.326973 -0.000000 -32.862282
LeftUpLeg -63.859750 15.609310 -29.219050
LeftLeg 2.755497 -0.000000 -0.000000
LeftFoot 36.525934 -10.979107 -12.026903
LeftToeBase 14.619254 -0.000000 -0.000000
RightUpLeg -96.424808 34.922000 31.334800
RightLeg 120.947329 -0.000000 -0.000000
RightFoot 5.483835 -22.771499 2.781241
RightToeBase 5.076243 -0.000000 -0.000000
2541
root 0.007295 3.424343 -8.192966 -26.998868 1.882722 3.896704
Spine 39.050196 -45.022916 -11.611704
Head -93.176137 -62.201587 69.582053
LeftShoulder 19.710975 -8.108466 19.921162
LeftArm 32.634380 32.239374 -42.146901
LeftForeArm -1.626228 -0.000000 16.719104
LeftHand -30.637154 -0.000000 -28.822297
LeftHandThumb1 -26.253704 0.000000 33.147579
RightShoulder -20.471718 15.629705 -35.327237
RightArm -14.963629 -33.492333 98.727504
RightForeArm 9.706533 -0.000000 21.008803
RightHand -16.872065 -0.000000 -62.647381
RightHandThumb1 -24.326973 -0.000000 -32.862282
LeftUpLeg -63.974916 15.597798 -29.245955
LeftLeg 2.771476 -0.000000 -0.000000
LeftFoot 36.341405 -11.210127 -11.513952
LeftToeBase 15.316051 -0.000000 -0.000000
RightUpLeg -96.434830 34.894293 31.412065
RightLeg 120.926137 -0.000000 -0.000000
RightFoot 5.526325 -22.722714 2.543706
RightToeBase 5.082098 -0.000000 -0.000000
2542
root 0.010003 3.426984 -8.194444 -26.920391 1.805885 3.891430
Spine 39.040326 -44.985392 -11.720441
Head -93.582075 -62.200743 70.104085
LeftShoulder 19.735626 -8.116697 19.970437
LeftArm 32.712300 32.144173 -42.140970
LeftForeArm -1.637658 -0.000000 16.726537
LeftHand -30.685554 -0.000000 -28.655520
LeftHandThumb1 -26.253704 0.000000 33.147579
RightShoulder -20.408232 15.659963 -35.153776
RightArm -14.654181 -33.507389 98.597663
RightForeArm 9.681899 -0.000000 20.514938
RightHand -16.932256 -0.000000 -62.372598
RightHandThumb1 -24.326973 -0.000000 -32.862282
LeftUpLeg -64.060777 15.620926 -29.264033
LeftLeg 2.712702 -0.000000 -0.000000
LeftFoot 36.502552 -11.142124 -11.557687
LeftToeBase 15.311782 -0.000000 -0.000000
RightUpLeg -96.424879 34.878666 31.500188
RightLeg 120.919976 -0.000000 -0.000000
RightFoot 5.556862 -22.659303 2.345435
RightToeBase 5.073983 -0.000000 -0.000000
2543
root 0.014114 3.427960 -8.195696 -26.830894 1.723341 3.892398
Spine 39.011811 -44.972970 -11.818353
Head -93.980664 -62.167224 70.513951
LeftShoulder 19.748069 -8.179485 19.969533
LeftArm 32.733300 32.113542 -42.114595
LeftForeArm -1.614805 0.000000 16.786555
LeftHand -30.701634 -0.000000 -28.509836
LeftHandThumb1 -26.253704 0.000000 33.147579
RightShoulder -20.360305 15.798567 -35.046966
RightArm -14.477929 -33.538875 98.555985
RightForeArm 9.651851 -0.000000 20.006261
RightHand -16.784564 -0.000000 -62.049463
RightHandThumb1 -24.326973 -0.000000 -32.862282
LeftUpLeg -64.158398 15.635903 -29.285404
LeftLeg 2.673255 -0.000000 -0.000000
LeftFoot 36.689917 -10.812439 -11.772243
LeftToeBase 14.975856 -0.000000 -0.000000
RightUpLeg -96.432248 34.875484 31.571598
RightLeg 120.921922 -0.000000 -0.000000
RightFoot 5.555946 -22.571717 2.244784
RightToeBase 5.016640 -0.000000 -0.000000
2544
root 0.010268 3.432430 -8.190721 -26.768369 1.594276 3.855557
Spine 39.017147 -44.980247 -11.896690
Head -94.264232 -62.140485 70.800802
LeftShoulder 19.677609 -8.141381 19.959091
LeftArm 32.854000 32.020707 -42.039408
LeftForeArm -1.404355 0.000000 16.824198
LeftHand -30.715386 -0.000000 -28.130222
LeftHandThumb1 -26.253704 0.000000 33.147579
RightShoulder -20.306522 15.953817 -34.937584
RightArm -14.279542 -33.474411 98.493837
RightForeArm 9.486396 -0.000000 19.512388
RightHand -16.906694 0.000000 -61.883335
RightHandThumb1 -24.326973 -0.000000 -32.862282
LeftUpLeg -64.196121 15.672452 -29.092111
LeftLeg 2.600637 -0.000000 -0.000000
LeftFoot 36.657598 -11.008000 -11.732405
LeftToeBase 15.204807 -0.000000 -0.000000
RightUpLeg -96.334048 34.841317 31.800211
RightLeg 120.912490 -0.000000 -0.000000
RightFoot 5.573407 -22.484936 2.016928
RightToeBase 5.073268 -0.000000 -0.000000
2545
root 0.013654 3.434063 -8.192146 -26.670009 1.495322 3.852422
Spine 39.004602 -45.009043 -12.012102
Head -94.626694 -62.126264 71.182238
LeftShoulder 19.621554 -8.171004 19.976574
LeftArm 32.903225 31.967058 -42.014724
LeftForeArm -1.235097 -0.000000 16.891266
LeftHand -30.834060 -0.000000 -27.794606
LeftHandThumb1 -26.253704 0.000000 33.147579
RightShoulder -20.230806 16.026687 -34.782375
RightArm -13.937882 -33.460351 98.361728
RightForeArm 9.400804 -0.000000 18.975568
RightHand -16.916732 0.000000 -61.616674
RightHandThumb1 -24.326973 -0.000000 -32.862282
LeftUpLeg -64.299329 15.679248 -29.068547
LeftLeg 2.550527 -0.000000 -0.000000
LeftFoot 36.766988 -10.806584 -11.718992
LeftToeBase 15.122592 -0.000000 -0.000000
RightUpLeg -96.339100 34.817204 31.904076
RightLeg 120.912960 -0.000000 -0.000000
RightFoot 5.599165 -22.370418 1.958428
RightToeBase 4.986017 -0.000000 -0.000000
2546
root 0.016345 3.437734 -8.192318 -26.612100 1.389682 3.842090
Spine 39.053576 -45.006702 -12.149893
Head -94.909985 -62.087485 71.518597
LeftShoulder 19.586129 -8.179083 20.021968
LeftArm 32.990573 31.879805 -41.963288
LeftForeArm -1.031447 -0.000000 16.933390
LeftHand -30.787014 -0.000000 -27.177874
LeftHandThumb1 -26.253704 0.000000 33.147579
RightShoulder -20.172413 16.086540 -34.622466
RightArm -13.590944 -33.425763 98.225754
RightForeArm 9.283412 0.000000 18.468607
RightHand -17.000071 0.000000 -61.300801
RightHandThumb1 -24.326973 -0.000000 -32.862282
LeftUpLeg -64.366364 15.730168 -29.029311
LeftLeg 2.497611 -0.000000 -0.000000
LeftFoot 36.872689 -10.749233 -11.708288
LeftToeBase 15.041791 -0.000000 -0.000000
RightUpLeg -96.274791 34.773652 32.059473
RightLeg 120.913547 -0.000000 -0.000000
RightFoot 5.596741 -22.284860 1.870063
RightToeBase 4.948921 -0.000000 -0.000000
2547
root 0.018385 3.436985 -8.191706 -26.473297 1.260841 3.833995
Spine 38.910316 -45.017775 -12.146685
Head -95.321903 -62.119776 71.912298
LeftShoulder 19.590122 -8.180534 20.016637
LeftArm 33.043967 31.819363 -41.920622
LeftForeArm -0.899595 0.000000 17.004141
LeftHand -30.925581 -0.000000 -26.479587
LeftHandThumb1 -26.253704 0.000000 33.147579
RightShoulder -20.108679 16.196181 -34.515213
RightArm -13.341461 -33.287558 98.116805
RightForeArm 9.074030 -0.000000 17.948522
RightHand -16.967744 -0.000000 -61.000678
RightHandThumb1 -24.326973 -0.000000 -32.862282
LeftUpLeg -64.530291 15.754548 -29.003276
LeftLeg 2.460056 -0.000000 -0.000000
LeftFoot 36.962065 -10.599206 -11.734793
LeftToeBase 14.994285 -0.000000 -0.000000
RightUpLeg -96.284584 34.780733 32.194626
RightLeg 120.910022 -0.000000 -0.000000
RightFoot 5.596184 -22.137952 1.657889
RightToeBase 4.766407 -0.000000 -0.000000
2548
root 0.017188 3.438188 -8.189338 -26.384091 1.100288 3.808767
Spine 38.859837 -45.000466 -12.179839
Head -95.700434 -62.121499 72.300052
LeftShoulder 19.569327 -8.122147 20.031662
LeftArm 33.130432 31.645079 -41.862291
LeftForeArm -0.675527 -0.000000 17.093889
LeftHand -31.022331 0.000000 -25.805159
LeftHandThumb1 -26.253704 0.000000 33.147579
RightShoulder -20.049375 16.326070 -34.409498
RightArm -13.088834 -33.177850 98.026337
RightForeArm 8.851321 0.000000 17.407738
RightHand -17.018097 -0.000000 -60.681572
RightHandThumb1 -24.326973 -0.000000 -32.862282
LeftUpLeg -64.660361 15.839179 -28.923897
LeftLeg 2.434749 -0.000000 -0.000000
LeftFoot 36.982743 -10.647663 -11.723187
LeftToeBase 15.052412 -0.000000 -0.000000
RightUpLeg -96.191361 34.800363 32.421768
RightLeg 120.885091 -0.000000 -0.000000
RightFoot 5.560444 -22.118579 1.576113
RightToeBase 4.662017 -0.000000 -0.000000
